<svg width="3574.0000000000005" height="2600" xmlns="http://www.w3.org/2000/svg">

 <g>
  <title>background</title>
  <rect fill="none" id="canvas_background" height="2602" width="3576" y="-1" x="-1"/>
 </g>
 <g>
  <title>Layer 1</title>
  <g transform="matrix(1.3333333,0,0,-1.3333333,0,5333.3333) " id="g8">
   <g transform="translate(493.75091552734375,12.500022888183594) scale(0.10000000149011612) " id="g10">
    <path fill="#black" fill-opacity="0.2" fill-rule="nonzero" id="path14" d="m8520.863614,20934.823444c-7421.4,0 -13437.68,1003.8 -13437.68,2242.1c0,323.1 409.72,630.2 1147.01,907.7c37.9,-660.8 1264.86,-1210.1 3648.27,-1633.2c2276.8,-404.1 5302.2,-626.7 8518.8,-626.7c3216.6,0 6241.9,222.6 8518.6,626.7c2421.3,429.8 3649,990 3649,1664.9l0,56c892.2,-300 1393.6,-637.9 1393.6,-995.4c0,-1238.3 -6016.2,-2242.1 -13437.6,-2242.1"/>
    <path fill="#000072" fill-rule="nonzero" id="path16" d="m14896.063614,25325.423444c-117.4,0 -229.3,3.2 -335.7,8.7c-1101.3,57.2 -1819.8,365.8 -1849.9,378.9c-60.7,26.5 -88.4,97.2 -61.9,157.9c26.3,60.7 97,88.7 157.8,62.1c7.1,-3 716.1,-306.3 1776.7,-359.8c976.1,-48.9 2458.6,109.5 3982.4,1144c54.7,37.2 129.4,23 166.6,-31.9c37.3,-54.8 23,-129.4 -31.9,-166.6c-1416.9,-962.1 -2801.4,-1193.3 -3804.1,-1193.3"/>
    <path fill="#dd4bbe" fill-rule="nonzero" id="path18" d="m20404.763614,28901.923444l0,-4785.7c0,-1177.2 -5375.9,-2131.7 -12007.5,-2131.7c-6631.5,0 -12008.1,954.5 -12008.1,2131.7l0,4785.7c0,-1177.6 5376.6,-2131.7 12008.1,-2131.7c6631.6,0 12007.5,954.1 12007.5,2131.7"/>
    <path fill="#eea5df" fill-rule="nonzero" id="path20" d="m-2966.076386,23731.823444c-140.51,53 -269.2,107.2 -385.24,162.5c-67.84,79.2 -99.38,153.9 -99.38,222l0,2458.9c94.52,-48.7 191.49,-91.4 289.87,-128.6l0,-2330.4c0,-131.2 66.88,-259.7 194.75,-384.4"/>
    <path fill="#000072" fill-rule="nonzero" id="path22" d="m-3450.696386,28334.523444l0,-4218.2c0,-362 889.26,-906.8 3385.06,-1349.8c2258.9,-401 5264.5,-621.8 8462.9,-621.8c3198.4,0 6203.8,220.8 8462.7,621.8c2495.6,443 3384.9,987.8 3384.9,1349.8l0,4218.2c-508.8,-427 -1622.4,-794.7 -3329,-1097.6c-2276.8,-404.2 -5302.1,-626.8 -8518.6,-626.8c-3216.6,0 -6242,222.6 -8518.8,626.8c-1706.7,302.9 -2820.42,670.6 -3329.16,1097.6m11847.96,-6509.8c-3216.6,0 -6242,222.6 -8518.8,626.7c-2421.4,429.8 -3649.18,990 -3649.18,1664.9l0,4785.4l320.02,0c0,-362 889.26,-906.7 3385.06,-1349.8c2259,-401 5264.5,-621.8 8462.9,-621.8c3198.4,0 6203.8,220.8 8462.7,621.8c2495.6,443.1 3384.9,987.8 3384.9,1349.8l320,0l0,-4785.4c0,-674.9 -1227.7,-1235.1 -3649,-1664.9c-2276.7,-404.1 -5302,-626.7 -8518.6,-626.7"/>
    <path fill="#9a34a7" fill-rule="nonzero" id="path24" d="m8397.263614,22144.723444c-3198.4,0 -6204,220.8 -8462.9,621.8c-931.2,165.3 -1638.7,344.7 -2159.83,523.6c-332.62,140.2 -582.96,288.1 -740.61,441.7c1919.44,-723.7 6065.24,-1224.6 10870.14,-1224.6c6631.5,0 12007.5,954.4 12007.5,2131.7l0,1411.5c120.4,128.1 232.9,265 333.3,411l0,-2345.1c0,-362 -889.3,-906.8 -3384.9,-1349.8c-2258.9,-401 -5264.3,-621.8 -8462.7,-621.8m-2741.1,1169c-1624.8,-0.1 -3121,222.6 -4166.1,587.6c-2034,711.1 -2631.1,2344 -2631.1,2344l0,0c-177.7,-18.6 -381.8,-32 -600.8,-32c-443.6,0 -948.35,55 -1418.99,233.3l0,726.2c269.33,-96.6 566.51,-162.4 890.16,-196.4c183.2,-19.2 362.17,-27 532.13,-27c176.8,0 343.8,8.4 495.5,21.3c180.8,-397.8 891.7,-1698.8 2680.3,-2323.8c1046.1,-365.6 2571.1,-596.2 4235.2,-596.2c2032.3,0 4271.6,344.1 6096.7,1207c203.4,-142.5 418.8,-267.2 641.7,-375.1c-1895.1,-1122.1 -4453.5,-1568.9 -6754.7,-1568.9m-6797.2,2931.6l124.4,-9.8c-3.6,7.5 -6.8,15.3 -10.4,22.9c-36.6,-4.6 -74.5,-9.2 -114,-13.1"/>
    <path fill="#a673be" fill-rule="nonzero" id="path26" d="m-2225.466386,23290.123444c-612.65,210.2 -967.82,419.6 -1125.85,604.2c116.04,-55.3 244.73,-109.5 385.24,-162.5c157.65,-153.6 407.99,-301.5 740.61,-441.7m-935.36,3156.5c-98.38,37.2 -195.35,79.9 -289.87,128.6l0,718.5c92.66,-44.5 189.36,-84.9 289.87,-120.9l0,-726.2"/>
    <path fill="#000072" fill-rule="nonzero" id="path28" d="m8397.263614,21984.523444c-6460.7,0 -11730.13,905.8 -11997.32,2041.2c75.05,-44.4 158.08,-88.2 248.74,-131.4c158.03,-184.6 513.2,-394 1125.85,-604.2c521.13,-178.9 1228.63,-358.3 2159.83,-523.6c2258.9,-401 5264.5,-621.8 8462.9,-621.8c3198.4,0 6203.8,220.8 8462.7,621.8c2495.6,443 3384.9,987.8 3384.9,1349.8l0,2345.1c57.5,83.7 111.1,170.5 159.9,260.3l0,-2605.5c0,-1177.2 -5375.9,-2131.7 -12007.5,-2131.7m-11847.96,4590.7c-54.22,27.9 -107.64,57.8 -160.14,89.8l0,712.1c51.99,-29.3 105.36,-57.1 160.14,-83.4l0,-718.5"/>
    <path fill="#ff88e9" fill-rule="nonzero" id="path30" d="m21587.963614,30698.223444c-801.7,2221.2 -5144.6,2021.4 -6932.2,1839.9c-68.6,-7 -132.9,-13.9 -193.7,-20.7l-56.1,34.4l249.8,-13.7c-2757.8,1975.6 -7486.9,1504.2 -9281.8,652.9l-352.2,-97.6c-3959.3,1245.1 -5666.3,-1199.9 -5666.3,-1199.9l111.2,20l-16,-20.2c-1041.3,-1.1 -5002.22,-186.9 -4093.85,-2991.7c583.91,-1802.8 2480.1,-1866.8 3501.95,-1760.1c39.6,4.1 77.5,8.6 114.3,13.2c3.5,-7.7 6.9,-15.3 10.4,-23l-124.7,9.8c0,0 597.2,-1632.7 2631.3,-2343.7c2638.2,-921.7 8155.4,-935.9 11343.1,1250l-100.6,7.9l37.3,11.5c20.2,-6.3 41.1,-12.8 63.3,-19.4c779.7,-231.6 2784.8,-612.3 4911.7,703l0,-0.3c1635.4,-405.4 4979.7,798.9 3843.1,3947.7"/>
    <path fill="#000072" fill-rule="nonzero" id="path32" d="m-1102.836386,27113.423444c104,-245.1 771,-1652.3 2601.2,-2292.1c2557.4,-893.3 8018.2,-971 11261.8,1207.2l-160.8,12.7l170.5,52.1l7.4,-2.3c19.3,-6 39.3,-12.2 60.5,-18.5l67.9,-5.3l-14.8,-10.1c798.6,-227.9 2763.2,-569.9 4840.9,715l38.1,23.6l0,-25.6c968.7,-230.5 2532.8,106.5 3392.4,1059.9c467.3,518.3 916.4,1435.1 402.1,2859.7c-783.8,2172 -4991.7,2011.8 -6840.2,1830.1l15.9,-11.4l-83.7,4.6c-67.8,-6.9 -131.4,-13.8 -191.5,-20.5l-8.5,-0.9l-147.9,90.5l261.7,-14.3c-2788.4,1932.4 -7447.5,1424.9 -9185.6,600.6l-363.3,-101.1l-7.1,2.2c-2035.7,640.2 -3460.2,282.6 -4296.6,-130.3c-754.1,-372.1 -1179.1,-854.5 -1303.1,-1009.7l112.9,20.3l-64.6,-81.6l-12.1,0c-29.9,0 -62.7,-0.2 -98.3,-0.6l-52,-9.4l6,8.7c-838.7,-14.2 -2974.15,-160.2 -3759.31,-1240.9c-331.54,-456.4 -387.54,-1034 -166.45,-1716.7c568.22,-1754.4 2386.53,-1850.9 3443.66,-1746.2l-2.4,6.3l36.6,-2.9c38.5,4.1 75.5,8.5 111.5,13l18.4,2.3l35.5,-78.3l-126.7,9.9m6779.5,-2929.7c-1647.9,0 -3158.7,228.5 -4194.8,590.5c-1906.2,666.3 -2565.2,2158.2 -2639.4,2340.4c-1069.62,-108.3 -2927.97,-16 -3509.42,1779.2c-226.31,698.8 -167.91,1291.5 173.59,1761.6c810.06,1115 3016.93,1251.2 3835.33,1262.1c59.4,80.1 496.8,643.2 1350.8,1065.3c844.1,417.2 2280,779.2 4329.4,136.6l345.1,95.7c1756.6,833.5 6499.1,1344.8 9295.4,-651.2c1829.3,184.9 6144.8,370.3 6948.8,-1857.2c522.6,-1447.9 64.4,-2381.8 -412.1,-2910.2c-874.7,-970.1 -2468.7,-1311.3 -3450.7,-1072.6c-2126.3,-1310.3 -4134,-932.2 -4911.2,-703.4c-1945.2,-1329.2 -4705.2,-1836.8 -7160.8,-1836.8"/>
    <path fill="#ffb2f1" fill-rule="nonzero" id="path34" d="m14504.563614,28646.223444c-261.6,0 -469,80.6 -497.5,284.5c-69.4,494.9 877.5,494.3 2025.4,897.2c1225.5,430.1 1204.5,659.1 1558.5,804.6c139.6,57.5 282.5,82.5 413.5,82.5c607.2,0 961.7,-537.4 -414.2,-875.2c-1546,-379.7 -1464.9,-562.2 -2192.6,-958.4c-253.4,-138.1 -606,-235.2 -893.1,-235.2"/>
    <path fill="#b25fc5" fill-rule="nonzero" id="path36" d="m5683.863614,24365.723444c-1626.1,0 -3118.3,225.8 -4141,583.2c-1531,535.1 -2222.8,1623 -2447.2,2060c276.7,39.1 453.9,83.7 469.7,87.7c85.6,21.9 137.2,109 115.3,194.6c-18.5,72.3 -83.8,120.4 -155.1,120.4c-13,0 -26.3,-1.6 -39.5,-5c-6.6,-1.7 -546.9,-136.8 -1231.4,-136.8c-160.38,0 -328.72,7.4 -499.94,25.7c-1175.1,125.7 -1930.66,682.6 -2245.7,1655.4c-88.17,272.2 -129.78,525.9 -124.94,759.9c476.56,-1282.6 2169.13,-1696.3 3517.18,-1696.3c85.2,0 168.6,1.7 250.6,4.8c12.9,0.5 25.9,0.8 38.7,0.8c445.7,0 839.4,-299.2 949.7,-734.3c129.9,-513 595.6,-1426.3 1602.2,-1884.8c864.8,-394 2059.9,-371.6 3478.3,-417.2c-70,50.4 -132.8,106 -186.8,166.4c-32.6,36.4 -62.8,79.4 -90.7,128c119,-144.7 253.4,-249 400.1,-305.2c240.8,-92 482.4,-133.1 713.8,-133.1c695.4,0 1298.4,371.3 1505.4,846.5c169.7,389.6 149.3,835.6 131.3,1229c-16.5,360.8 -32.1,701.4 116,849.5c69.9,69.8 182.8,168 313.4,281.9c2.5,2.2 5.1,4.4 7.6,6.6c-287.8,-888.2 212.8,-2113.5 -473.7,-2810c-55.6,-56.4 -113.6,-108.4 -174,-155.6c1203.6,150.2 2401.5,458.9 3443.8,961.2c95.6,-122.3 199,-238.1 308.8,-347c79.4,-78.8 162.1,-154 247.6,-225.5c-1750.4,-793.1 -3869.3,-1110.8 -5799.5,-1110.8m15003.7,3211.5c5.6,49.6 9.4,99.6 11,150.1c6.2,166.6 -12.2,337.2 -63.5,502.2c449.9,304.9 821.1,716.6 1021.9,1240.4c-4.3,-591 -203.7,-1115.4 -595.1,-1549.5c-113.1,-125.5 -238.9,-239.8 -374.3,-343.2m-17754.3,822.5c-1110.8,0 -1738.6,246 -2028.6,405.1c52.6,37 103.4,77.1 152,120.5c10.8,9.7 21.5,19.5 32,29.4c132.2,54.4 267.3,116.8 399.8,188.4c416.6,-51.3 970.4,-98.2 1602.7,-98.2c484.1,0 1014.1,27.4 1564.5,101.4c-70.6,-175.7 -134.7,-379.2 -184.5,-613c-592.6,-95.7 -1102.5,-133.6 -1537.9,-133.6"/>
    <path fill="#ffc4f4" fill-rule="nonzero" id="path38" d="m-4607.016386,29852.823444c28.56,269.2 123.07,510 283.33,720.7c388.96,511.4 1108.66,798.6 1832.43,959.3c-12.86,-36.3 -28.72,-77.8 -48.27,-124.8c-51.86,-124.5 -97.61,-230.7 -111.61,-316.5c-818.2,-199.5 -1616.6,-566.6 -1955.88,-1238.7m26190.78,287.9c-432.8,1177.2 -1865.1,1670.6 -3378.6,1847.2c46.5,69.5 90.5,140.8 131.8,213.9c21.6,33.9 38.7,70.5 56.6,106.6l29.1,59c1379.2,-191.7 2634.3,-669 3014.9,-1723.5c61.8,-171.3 110.5,-339.2 146.2,-503.2"/>
    <path fill="#000072" fill-rule="nonzero" id="path40" d="m-1738.536386,26949.423444c-169.96,0 -348.93,7.8 -532.13,27c-1298.44,136.4 -2171.43,785.1 -2524.7,1875.8c-245.7,758.7 -172.61,1403.1 217.23,1915.4c1069.14,1404.8 4150.6,1287.4 4281.2,1281.8c88.2,-3.8 156.7,-78.5 152.8,-166.7c-3.8,-88.3 -78.6,-157.6 -166.7,-153c-30.2,1.2 -3045.23,115.9 -4012.85,-1156.2c-322.42,-423.9 -378.71,-969.8 -167.29,-1622.6c315.04,-972.8 1070.6,-1529.7 2245.7,-1655.4c902.04,-96.4 1723.14,109 1731.34,111.1c85.4,21.8 172.7,-29.9 194.6,-115.4c21.9,-85.6 -29.7,-172.7 -115.3,-194.6c-28.6,-7.3 -585.2,-147.2 -1303.9,-147.2"/>
    <path fill="#000072" fill-rule="nonzero" id="path42" d="m5672.463614,24050.723444c-1664.1,0 -3189.1,230.6 -4235.2,596.2c-2081.4,727.4 -2703.4,2370.1 -2728.8,2439.7c-30.4,83 12.3,174.8 95.2,205.2c82.8,30.3 174.7,-12.2 205.2,-95c5.8,-15.7 601.2,-1572.4 2534,-2247.9c2546.4,-889.8 7999.9,-963.6 11199.8,1230.8c72.8,50 172.4,31.4 222.4,-41.5c50,-72.8 31.5,-172.4 -41.4,-222.4c-1968.4,-1349.9 -4764.8,-1865.1 -7251.2,-1865.1"/>
    <path fill="#000072" fill-rule="nonzero" id="path44" d="m18432.563614,26513.223444c-260.2,0 -506.3,27.7 -726.2,82.2c-85.8,21.2 -138.1,108 -116.8,193.8c21.3,85.8 108.4,138 193.8,116.7c929,-230.2 2446.8,92 3278.5,1014.5c634.8,704 764.6,1645.7 375.7,2723.5c-958.1,2654.8 -7460.4,1651.4 -7525.9,1640.8c-87.3,-13.7 -169.3,45.6 -183.2,132.9c-13.9,87.2 45.5,169.2 132.8,183.2c278.4,44.4 6829.9,1054.1 7877.3,-1848.3c545.2,-1510.8 62.2,-2490.5 -439,-3046.4c-728.3,-807.7 -1895.5,-1192.9 -2867,-1192.9"/>
    <path fill="#000072" fill-rule="nonzero" id="path46" d="m-1264.136386,31817.023444c-23.8,0 -47.7,7 -68.6,21.7c-54.3,37.9 -67.6,112.6 -29.7,166.8c20.4,29.4 513.3,723.9 1574.9,1222c973.7,456.8 2630.1,823.6 4991.9,-23.3c62.3,-22.4 94.8,-91.1 72.4,-153.5c-22.3,-62.3 -90.8,-95 -153.5,-72.4c-2277,816.5 -3865.1,471.3 -4796.3,37.7c-1008.6,-469.5 -1488,-1141.2 -1492.6,-1147.9c-23.4,-33.3 -60.7,-51.1 -98.5,-51.1"/>
    <path fill="#000072" fill-rule="nonzero" id="path48" d="m15070.263614,32505.123444c-24.2,0 -48.6,7.3 -69.8,22.4c-1335.1,956.3 -3306,1475.2 -5550.4,1458.8c-2073.5,-14.4 -3750.2,-465.7 -4492.2,-906.6c-56.9,-33.8 -130.5,-15.1 -164.4,41.9c-33.9,57 -15.1,130.6 41.9,164.5c924.9,549.6 2778.8,927.4 4613.1,940.2c33.3,0.2 66.6,0.3 99.8,0.3c2253.2,0 4236,-532.7 5592,-1504c53.9,-38.5 66.2,-113.5 27.6,-167.4c-23.4,-32.7 -60.2,-50.1 -97.6,-50.1"/>
    <path fill="#9ca9b9" fill-rule="nonzero" id="path50" d="m17139.563614,32963.023444c-2.8,-20 -77.6,-93.6 -198.8,-202c-561.6,-502 -2120,-1741.2 -2120,-1741.2l-2271.2,-112l-377.2,252.8l-297.2,198.8c-2.4,1.2 -4.4,2.4 -6.8,3.6c-56.8,29.6 -112,56.4 -166.4,80.8c-1706.4,767.2 -2038,-1137.2 -2038,-1137.2c-144,-999.6 -1583.2,-2044.8 -1967.2,-2428.4c-40.4,-40.4 -72,-88 -96.4,-141.2c-31.2,-68.4 -50.8,-146.4 -62,-231.6c-65.2,-480.4 120.4,-1197.6 -122.4,-1754.8c-254.8,-585.6 -1162,-954.4 -2015.6,-628c-514,196.4 -888,1179.6 -873.6,2418.8c2.8,252.8 22,482 53.2,689.6c22.4,151.2 50.8,290.8 84,419.6c245.2,963.6 736.4,1316.8 736.4,1316.8l-1425.6,7148.8l-12,59.6l-32.8,165.2l1011.2,-86l3438.4,-292l7736.4,-657.2c0,0 1039.6,-3231.2 1023.6,-3342.8"/>
    <path fill="#6d76a4" fill-rule="nonzero" id="path52" d="m7497.563614,27883.023444c-60.1,76.3 -136.2,159.4 -230.5,240c-34.1,29.3 -70.7,58.3 -109.7,86.5l-3.4,6.3c0,0 113.2,358.4 446.4,676c613.2,584.8 1482,457.6 1720,1414.8c232.4,934 554.8,1069.6 1099.2,1502.8c601.2,478.4 -37.6,1786 676.8,2570.8c-12.8,-39.3 -397.7,-1238.8 330.2,-2442.8c44.4,-93.1 90.7,-181.7 138,-265.7c-215.5,76.5 -419.2,114.7 -610.3,114.7c-200.9,0 -388,-42.3 -560.3,-126.9c-710.3,-348.9 -880.9,-1285.7 -888.5,-1330.1c-107.8,-748.7 -1037.1,-1557.8 -1592.3,-2041.3c-135.1,-117.7 -251.9,-219.3 -329.5,-296.9c-33.3,-33.3 -61.8,-69.5 -86.1,-108.2"/>
    <path fill="#6d76a4" fill-rule="nonzero" id="path54" d="m12027.163614,31257.723444l-19.1,12.8c3,4.5 5.9,9.3 8.5,14.3c41.2,78.1 11.2,174.9 -67,216.1c-111.8,59 -220.9,108.8 -327.3,149.5c-72.8,95.3 -137.7,191.1 -195.7,287c-270,566.5 -467.6,1297.5 -387.4,2169.2c0,0 683,-1334.9 2297,-1334.9c77.9,0 157.9,3.1 240.2,9.7c1494.6,118.6 2007.4,650 2131.6,814c28.1,-131.1 45.1,-258.9 16,-369c-15.9,-61.3 -42.9,-118.1 -81.4,-170.6c-38.3,-52.3 -86,-100.5 -137,-146.6c-213,-180 -481.5,-314.6 -748.9,-442.3c-135.5,-61.9 -272.6,-122.2 -411.1,-180.1c-138.7,-57.6 -278.8,-112.8 -419.1,-168l-423.7,-160.7l-213,-78.2c-71.5,-26.9 -144.9,-56.8 -217.2,-85.1c-72.4,-29.2 -145.7,-56.1 -217.1,-87.8l-212,-100.9c-143.2,-63 -277.4,-146.2 -414.9,-221.6c-69.6,-36.1 -133.2,-83.7 -199.7,-125.7c-0.6,-0.4 -1.1,-0.7 -1.7,-1.1"/>
    <path fill="#4c5295" fill-rule="nonzero" id="path56" d="m11622.263614,31650.423444c-19.3,7.4 -38.6,14.5 -57.7,21.3c-47.3,84 -93.6,172.6 -138,265.7c58,-95.9 122.9,-191.7 195.7,-287"/>
    <path fill="#ffffff" fill-rule="nonzero" id="path58" d="m7415.963614,25750.523444c-254.9,-585.5 -1161.9,-954.5 -2015.6,-628.1c-514,196.7 -888.2,1179.7 -873.5,2419.1c2.8,252.5 21.9,481.9 53,689.4c215.5,158.7 667.4,356.1 1565,315.3c861,-39.1 1288.6,-542.6 1455.6,-809.4c-206.8,-452.3 101.5,-1329.7 -184.5,-1986.3"/>
    <path fill="#4c5295" fill-rule="nonzero" id="path60" d="m7497.463614,27882.823444c-60.1,76.4 -136.2,159.4 -230.4,240.2c94.3,-80.6 170.4,-163.7 230.5,-240c0,-0.1 0,-0.1 -0.1,-0.2"/>
    <path fill="#b2b2d4" fill-rule="nonzero" id="path62" d="m6054.663614,25161.523444c-194.7,0 -397.4,34.1 -597,110.5c-154,58.9 -310.6,229.5 -442.1,494.8c216.7,-81.5 436.6,-118.3 648.2,-118.3c619.5,0 1168.2,315.3 1357.4,750.1c253.2,581.2 40.8,1334.8 131.6,1814c40.8,-29.2 78.8,-59.2 114.3,-89.6c94.2,-80.8 170.3,-163.8 230.4,-240.2c-156.7,-249.9 -140.4,-606.9 -123.3,-982c17.2,-376.2 35,-765.2 -105,-1086.6c-161.5,-370.8 -654.9,-652.7 -1214.5,-652.7"/>
    <path fill="#000072" fill-rule="nonzero" id="path64" d="m6057.163614,24839.923444c-231.4,0 -473,41.1 -713.8,133.1c-599.4,229.3 -991.8,1262.2 -976.5,2570.3c22,1872.9 902.9,2527 940.4,2554c71.8,51.6 171.7,35.1 223.2,-36.6c51.4,-71.6 35.3,-171.1 -35.8,-222.8c-11.1,-8.3 -787.9,-604.4 -807.8,-2298.3c-15,-1275.7 386,-2120.5 770.8,-2267.6c773.2,-295.8 1593.9,42.4 1811.5,542.2c140,321.4 122.2,710.4 105,1086.6c-19.8,433.3 -38.5,842.5 209.5,1090.4c77.6,77.6 194.4,179.2 329.5,296.9c555.2,483.5 1484.5,1292.6 1592.3,2041.3c7.6,44.4 178.2,981.2 888.5,1330.1c430.9,211.7 954.2,158.4 1555.6,-158.6c78.2,-41.2 108.2,-138 67,-216.1c-41.2,-78.2 -138.2,-108.2 -216.2,-67c-505,266.3 -930.3,318.5 -1264,155.1c-563.9,-275.9 -713.5,-1085.8 -715,-1094c-123.9,-861.4 -1109.3,-1719.5 -1698.1,-2232.1c-130.6,-113.9 -243.5,-212.1 -313.4,-281.9c-148.1,-148.1 -132.5,-488.7 -116,-849.5c18,-393.4 38.4,-839.4 -131.3,-1229c-207,-475.2 -810,-846.5 -1505.4,-846.5"/>
    <path fill="#ffffff" fill-rule="nonzero" id="path66" d="m2607.763614,30743.423444c0,-896.5 -764.3,-1472.7 -1631.3,-1806.4c-813.5,-313.5 -1717.8,-412.8 -2165.6,-362.4c-866.73,97.1 -1308.22,551.4 -1307.16,1103.2c0.35,109.6 15.59,263.8 76.94,431.9c175.54,483 731.92,1079.1 2410.32,1055c352.5,-5.3 884.8,-21.7 1477,262.4c475.2,228 621.6,740.8 709.6,1066.3l430.2,-1750"/>
    <path fill="#000072" fill-rule="nonzero" id="path68" d="m-107.336386,31140.423444c-1576.2,0 -2115.08,-562.1 -2288.53,-1039.2c-61.76,-169.3 -75.14,-323.8 -75.43,-423.5c-1.13,-576.1 491.21,-989.3 1284.96,-1078.3c457.2,-51.5 1367,57.7 2153.8,360.9c736.1,283.3 1613.4,822 1615.2,1780.1l-406.4,1653.7c-86.5,-306.4 -251,-775.3 -697.5,-989.6c-581.8,-279.1 -1110.1,-270.9 -1459.9,-265.3l-28.2,0.5c-33.1,0.5 -65.8,0.7 -98,0.7m-822.6,-2603.7c-97.1,0 -185.1,4.4 -262,13c-821.16,92.1 -1330.54,524.3 -1329.37,1128.1c0.34,103.8 14.21,264.4 78.47,440.5c182.48,502.1 754.3,1096.4 2434.2,1071.4l28.3,-0.5c345,-5.3 866.2,-13.6 1437.5,260.4c473.8,227.4 613.1,742.6 696.3,1050.4l25.3,93.5l453.9,-1850.1c0,-988.3 -895.8,-1540.5 -1647.2,-1829.7c-672.6,-259.3 -1413.7,-377 -1915.4,-377"/>
    <path fill="#000072" fill-rule="nonzero" id="path70" d="m-1491.536386,29485.123444c-25,-65.4 -38.2,-133.5 -46.8,-200.8c-8.2,-67.5 -10,-135 -7.7,-201.4c3.8,-66.6 10.4,-132 23,-196.3c11.6,-64.3 28.8,-127.2 47.5,-188.6c24.4,-80.6 -21.1,-165.7 -101.7,-190.2c-80.6,-24.4 -165.7,21.1 -190.1,101.7c-5.4,17.8 -7.3,36.4 -6.3,54c4.9,75.9 12.1,150.9 25.6,224.9c12.4,73.8 31.6,146.3 53.6,216.4c23.5,70.1 51.2,138 84.7,202.2c33.6,63.9 71.6,125.3 118.2,178.1"/>
    <path fill="#000072" fill-rule="nonzero" id="path72" d="m-1930.456386,29878.223444c-49.75,-53.5 -85.67,-116.2 -114.59,-179.9c-28.68,-64.1 -48.41,-130.7 -62.07,-197.3c-12.47,-67.3 -19.05,-134.5 -19.24,-201.6c-1.17,-33.2 2.34,-67.2 3.2,-100l10.89,-99.2l0.66,-5.9c9.2,-83.8 -51.29,-159.3 -135.1,-168.5c-83.85,-9.2 -159.28,51.3 -168.49,135.2c-1.95,17.6 -0.61,35.5 3.19,51.9c9.32,39.2 17.88,78 28.06,116.4c12.38,38.3 22.14,76.3 36.82,113.5c27.1,74.5 61.18,146.2 100.62,213.5c40.64,66.9 86.78,129.3 139.59,184.4c52.86,54.5 111.16,103.7 176.46,137.5"/>
    <path fill="#b2b2d4" fill-rule="nonzero" id="path74" d="m566.763614,28971.323444c-1236.5,132.1 -2052.5,488.6 -2563.64,818.6c19.13,31.1 40.96,60.9 66.42,88.3c-35.2,-18.2 -68.36,-40.9 -99.74,-66.5c-97.06,64.1 -182.59,127 -257.53,186.8c44.85,147.4 128.92,312.8 283.18,464.6c77.02,75.7 166.01,143.6 266.91,203.6c19.1,-22 38.8,-46 59.1,-72.1l0.4,-0.4c0.3,-0.4 0.5,-0.6 0.5,-0.6l0,0l0,0c34.1,-50.3 166.9,-186.4 167.2,-186.7c202.2,-193 421.3,-358.5 660,-503.2c334.7,-210.5 708.1,-382.5 1112.3,-518.5c0,0 64.7,-16 182.6,-40.8c77.5,-24.2 156.4,-47.8 236.9,-70.8c0,0 81.3,-18.3 229.6,-44.7c-21.6,-22.4 -44.2,-44.1 -67.6,-65c-84.4,-75.5 -177.7,-139.1 -276.6,-192.6m613,76.6c35.3,39.3 68.5,80.2 99.6,122.7c39.2,-5.5 80.1,-11 122.7,-16.6c-73.9,-38.1 -148.3,-73.4 -222.3,-106.1"/>
    <path fill="#000072" fill-rule="nonzero" id="path76" d="m1136.763614,29002.023444c14.6,15.1 29,30.4 43,45.9c74,32.7 148.4,68 222.3,106.1c14,-1.8 28.3,-3.6 42.7,-5.5c-99.6,-52.7 -202.7,-101.5 -308,-146.5"/>
    <path fill="#000072" fill-rule="nonzero" id="path78" d="m-1996.876386,29789.923444c-11.25,7.3 -22.35,14.6 -33.32,21.8c31.38,25.6 64.54,48.3 99.74,66.5c-25.46,-27.4 -47.29,-57.2 -66.42,-88.3"/>
    <path fill="#000072" fill-rule="nonzero" id="path80" d="m-697.436386,28387.123444c-205.9,0 -383.7,14.3 -509.5,28.4c-895.27,100.6 -1450.59,584.3 -1449.23,1262.6c0.49,221.8 56.6,648.5 427.2,1013.1c442.43,435.2 1188.13,649.1 2222.13,633.3l30.1,-0.4c352,-5.4 834,-12.6 1375.6,247.4c418.5,200.9 547.2,678.2 624,963.5c23,85.3 110.6,135.8 196.2,112.8c85.3,-23 135.8,-110.7 112.8,-196.1c-85.1,-316 -243.7,-904.3 -794.6,-1168.7c-609.6,-292.6 -1157,-284.3 -1518.9,-278.9l-29.8,0.5c-945,13.1 -1614,-168.6 -1993.11,-541.5c-287.69,-283 -331.25,-613.7 -331.59,-785.7c-1.04,-509 434.4,-861.8 1164.9,-943.9c409.4,-45.9 1425.7,-96.1 2014.6,430.4c297.2,265.6 447.8,651.4 447.8,1146.5c0,88.4 71.6,160 160,160c88.4,0 160,-71.6 160,-160c0,-590.1 -186.6,-1056.1 -554.5,-1385.1c-494.8,-442.3 -1219.3,-538.2 -1754.1,-538.2"/>
    <path fill="#9ca9b9" fill-rule="nonzero" id="path82" d="m17795.563614,24959.023444c-1946,-634.4 -3572.4,-579.2 -4797.2,-149.2c-1522,534.4 -2423.6,1647.2 -2547.6,2735.6c-178.4,1562.4 412.8,2795.2 1721.6,3615.2c336.4,210.8 720,394.4 1150.4,549.6c2633.6,948 2617.6,1383.2 2425.2,1948.4l-7592.8,2230l-4180.4,1227.6l-185.6,54.4c58.4,1.2 116.4,3.2 173.6,5.2c341.6,12.8 667.2,40 978.4,79.2c1397.2,176.4 2510,596 3506,1039.2c1631.2,726.4 2950.4,1517.2 4696.4,1413.6c1912,-113.6 3049.2,-972.8 3813.2,-1945.2c977.2,-1243.6 1582,-3304.4 1581.2,-3960.4c-1.2,-478.4 83.6,-1574 -1454.4,-2734.4c-1575.6,-1189.2 -4321.2,-730.8 -4309.6,-2694.4c2.8,-531.2 428,-874 1067.2,-1015.2c1006,-222.4 2542.4,55.6 3794,887.2c3460,2297.2 4206,-1967.2 160.4,-3286.4"/>
    <path fill="#ced4dc" fill-rule="nonzero" id="path84" d="m11356.063614,30191.523444c0,0 156.2,267.4 568.2,597.2c32.9,24.7 65.7,49.5 98,74.8c58.6,44 122.8,80.8 183.9,121.6l92.7,59.9c15.5,9.8 30.6,20.2 46.5,29.6l48.7,26.4c130.8,68.7 257,145.1 394.1,202.5l201.9,92.5c68.4,28.6 138.3,54.1 207.2,81.7c69.6,27 137.3,54.5 208.5,81l216.1,78.6l215.5,81l214.1,85.4l213.3,88.6c70.6,31.3 141.4,61.4 211.6,93.8c140.9,63.5 280.6,130.7 418.2,203.6c137.7,73.1 274.1,150.4 405.4,239.3c43.9,29.3 87.3,59.8 130,91.9c-62.6,-214.3 -249.7,-484.3 -741.3,-720.7c-1057.3,-508.5 -1969.2,-686.7 -2818.3,-1260.9c-492.9,-333.3 -514.3,-347.8 -514.3,-347.8"/>
    <path fill="#ced4dc" fill-rule="nonzero" id="path86" d="m18226.963614,34667.723444c-271.4,831.8 -709.5,1814.4 -1270.2,2527.9c-764.1,972.2 -1901.3,1831.5 -3813.3,1945.2c-104.4,6.2 -207.5,9.2 -308.9,9.2c-1591.9,0 -2846.9,-736.1 -4375.5,-1417.3c5.5,129.5 6.2,256.7 0.9,379.3c220.7,97.5 439.2,198.7 657,299.7c553.6,256.1 1098.6,521.6 1659.3,732.5c280.2,105.2 564.7,195.1 853.1,264.5c72.3,15.7 144.2,34.7 216.9,47.9l218.4,39.5l219.7,28.7c73.2,9.8 147,12.6 220.5,19.4c113.1,7.2 226.2,10.9 339.3,10.9c181.8,0 363.9,-9.6 546.7,-29.2c74.4,-4.6 147.7,-16 221.1,-26.3c73.3,-11.1 147.3,-18.6 220,-32.6l217.8,-43l54.5,-10.7l53.7,-13.8l107.3,-27.6c573.3,-144.1 1113.6,-400.7 1588.2,-748.2c237.6,-173.7 456.9,-372.5 658.7,-588.6c100.5,-108.4 197.6,-220.3 290.1,-336.3c47.7,-57 88.6,-118.2 133.4,-177l65.7,-89l61.3,-92.8c329.9,-493.3 590.6,-1037.7 811,-1595.1c109.6,-279.3 205.6,-564.1 290.4,-851.1c21.8,-75.1 42.9,-150.5 62.9,-226.1"/>
    <path fill="#ffffff" fill-rule="nonzero" id="path88" d="m17795.463614,24958.923444c-1945.9,-634.4 -3572.4,-579.3 -4797.1,-149.3c10.5,7.3 20.9,13.6 32.1,19.2l606.8,314.2c222.5,115.1 282.4,405.9 123.8,599.8l-19.2,23.7c-61,74.3 -89.3,162.2 -89.3,248.6c0,158.4 94.9,312.1 260.5,372.1c253.5,91.8 342.1,405.3 174.4,616.2l-177.9,223.9c-31.7,39.8 -54.7,84.4 -68.3,130.8c1006.1,-222.1 2542.2,55.8 3794.1,887.1c3459.7,2297.4 4206,-1967.1 160.1,-3286.3"/>
    <path fill="#000072" fill-rule="nonzero" id="path90" d="m3788.163614,37223.723444c605.2,57.9 1203.5,142.4 1791,272.4c588,127.3 1163.6,302.2 1727.4,511.7c563.3,211.8 1114.1,459.3 1665.9,714.9c551.6,255.8 1106.7,518.3 1689,731.6c581.4,210.8 1193.5,375 1822.3,409.8c312.9,18.9 629.5,13.7 938.8,-19.7c77.8,-5 155.1,-16.8 232.5,-27.7c77.3,-11.7 155,-19.8 231.9,-34.5l230.5,-45.4l57.6,-11.4l57,-14.6l113.9,-29.2c608.5,-153 1189.6,-428 1697.5,-800.4c254.3,-186 488.4,-398.3 702.3,-627.4c106.6,-114.9 209.2,-233.3 306.6,-355.4c50.1,-60 94.3,-125.4 141.7,-187.9l69.9,-94.8l64.7,-97.7c347.7,-520.5 615.7,-1082 843,-1656.7c113,-287.8 211.8,-580.9 299.6,-878c86.2,-298.1 162.7,-598 205.2,-915.2c4.7,-40.1 10.3,-79.5 14.2,-120.2l6.1,-126.1c1.8,-41.7 0.8,-76.3 1.3,-114.9l-0.1,-116.8c-1,-157.7 -13.5,-319.5 -39.3,-478.8c-23.1,-160.3 -69.2,-316.6 -119.6,-470.2c-30.2,-74.9 -58.1,-151.1 -92,-224.3l-53.5,-108.4c-17.9,-36.1 -35,-72.7 -56.6,-106.6c-158.3,-279.8 -355.9,-534.1 -579.6,-756.7c-53.1,-58.9 -112.6,-110.4 -170.5,-163.8l-87.1,-79.7l-43.6,-39.7l-45.8,-36.8l-183.3,-147.2l-45.8,-36.8l-49,-34.8l-98.2,-69.4c-266.4,-178.1 -554.1,-313.9 -845.2,-427.7c-291.6,-113.7 -588.4,-202.1 -883.2,-286.2c-295,-83.7 -588.8,-160.7 -874.9,-249.5c-142.9,-44.4 -284,-91.6 -420.1,-146.1c-137.2,-52.7 -268.2,-114.7 -391.6,-185c-124.3,-69.2 -236.4,-152.6 -333,-247.3c-96.4,-94.8 -178.1,-201.8 -232.3,-323.4c-16.7,-28.8 -26.4,-61 -38.1,-92.3c-11.2,-31.5 -24.8,-62.1 -31,-95.6l-24.3,-98.6l-13.9,-102c-2.1,-17.1 -5.2,-33.9 -6.7,-51.2l-1.9,-52.3l-4.2,-104.7l6.7,-94.7c3.8,-31.1 12.6,-60.8 17.9,-91.4c31.2,-119.5 95.5,-227.7 186,-318.5c90.3,-91.1 204.7,-164.6 329.2,-223c124.1,-59.5 260.8,-100.6 400.1,-131.6c139.1,-32.9 283.8,-49.4 428.6,-61.4c582.6,-39.1 1179,51.3 1745.3,222.9c283.6,86 560.9,193.7 828.1,321.8l100.2,48.1l98.2,51.9l98.2,52l96,55.6l96,55.8l93.6,59.5l192.6,122.9c262.9,168.7 541.6,317.5 837.8,434.4c296.8,113.4 614.9,197 950.6,192.3c167,-3.6 338.6,-28.1 501.6,-91.9c81.7,-30.7 160.1,-72.2 234.4,-120.3c72.5,-50.8 142.7,-106.6 201.8,-173.2c59.6,-65.8 113.2,-137.4 155.1,-214.8c23,-37.8 39.6,-78.3 58.6,-117.8c15,-40.6 33.1,-80.8 44.3,-122.5c51.6,-165.4 70.2,-336.6 64,-503.8c-11.1,-335.6 -113.1,-654.1 -259.9,-941.2c-147,-288.3 -343,-545.5 -563.8,-774.2c-445.2,-456.1 -991.9,-794.9 -1569.6,-1034.1c-144.2,-61.3 -291.5,-113.9 -439.5,-164c-147.8,-46.5 -295.4,-91.1 -443.5,-135.5c-149.9,-38.3 -298.6,-81 -449.5,-115.5l-226.9,-49.8l-113.5,-24.5l-114.5,-20.3c-609.4,-110.9 -1232.5,-167 -1855.6,-133.1c-155.9,4.4 -311.1,23.3 -466.4,37.7c-154.5,22.8 -309.8,41.1 -462.8,74.6c-154.1,27.4 -305.5,68.4 -457.2,107.5l-224.9,68.9c-74.8,23.5 -147.9,52.8 -221.9,79c-586.5,222.4 -1141.3,550.9 -1593.3,999.2c-225.5,223.7 -424.5,476.7 -583.1,755.4c-157.6,278.7 -278.7,582.5 -335.5,902.7c-30.3,162.3 -36.4,317.4 -49.3,474.6c-8.8,78.2 -3.5,157.6 -4.9,236.5l0.3,118.5c0.1,39.5 -0.8,78.9 3.9,118.4c14,157.9 21.9,316.4 55.1,472.5l20.7,117.4c3.6,19.6 6.5,39.2 10.7,58.7l15.6,57.7l62.9,230.7c8.9,38.9 25.9,75.4 39.1,113l42.4,112.1l42.4,111.9c16.2,36.5 34.8,71.9 52.2,107.9c35.9,71.3 69.1,144.2 107.7,214l126.2,203.6c178.4,263.8 383.9,511.4 623.5,719.1c113.3,111.8 243.5,201.8 367.3,300.1c62.9,47.8 130.7,87.8 195.9,132c66.5,42 130.1,89.6 199.7,125.7c137.5,75.4 271.7,158.6 414.9,221.6l212,100.9c71.4,31.7 144.7,58.6 217.1,87.8c72.3,28.3 145.7,58.2 217.2,85.1l213,78.2l423.7,160.7c140.3,55.2 280.4,110.4 419.1,168c138.5,57.9 275.6,118.2 411.1,180.1c267.4,127.7 535.9,262.3 748.9,442.3c51,46.1 98.7,94.3 137,146.6c38.5,52.5 65.5,109.3 81.4,170.6c32.5,123 7.5,268 -26.2,415c-6.8,28.8 11.2,57.6 40,64.3c25.3,5.9 50.6,-7.3 61,-30c31.9,-70.5 62.9,-143.6 84,-223.4c21.9,-79.3 32.4,-166.7 23.7,-255.8c-7.9,-89.2 -38.8,-176.6 -80.8,-253.2c-42,-77.2 -94.9,-144.7 -151.6,-206.2c-114.3,-121.2 -242.3,-220.1 -374.1,-308.1c-131.3,-88.9 -267.7,-166.2 -405.4,-239.3c-137.6,-72.9 -277.3,-140.1 -418.2,-203.6c-70.2,-32.4 -141,-62.5 -211.6,-93.8l-213.3,-88.6l-214.1,-85.4l-215.5,-81l-216.1,-78.6c-71.2,-26.5 -138.9,-54 -208.5,-81c-68.9,-27.6 -138.8,-53.1 -207.2,-81.7l-201.9,-92.5c-137.1,-57.4 -263.3,-133.8 -394.1,-202.5l-48.7,-26.4c-15.9,-9.4 -31,-19.8 -46.5,-29.6l-92.7,-59.9c-61.1,-40.8 -125.3,-77.6 -183.9,-121.6c-115,-90.5 -237.6,-172.8 -342,-275.1c-222.4,-190.5 -408,-417.3 -570.7,-656.6l-114.7,-184.7c-34.9,-63.3 -64.7,-129.5 -97.4,-194c-15.8,-32.7 -32.8,-64.6 -47.5,-97.7l-38.3,-101.7l-38.5,-101.7c-12,-34.1 -27.8,-67 -35.6,-102.6l-57.2,-210.2l-14.4,-52.5c-3.8,-17.7 -6.4,-35.8 -9.7,-53.7l-18.8,-107.6c-30.8,-142.4 -37.4,-289 -50.8,-434.4c-4.5,-36.3 -3.5,-73 -3.5,-109.7l-0.2,-110c1.4,-73.4 -4,-146.7 4.5,-220.1c12.1,-146.3 18.4,-296.2 44.6,-433.8c49.4,-280.4 156.9,-551 298.7,-801.7c142.7,-250.8 323.5,-481.3 530.3,-686.5c414.5,-411.4 930.4,-718.3 1481.2,-927.1c69.6,-24.5 138,-52.2 208.5,-74.2l211.9,-65c143.3,-36.8 286.2,-75.7 432.2,-101.5c144.7,-31.9 292.5,-49 439.1,-70.8c148,-13.6 295.4,-31.8 444.3,-35.9c594.4,-32.5 1193.3,21.1 1781.7,128.2l110.5,19.5l109.8,23.8l219.4,48.2c146.1,33.3 290.3,74.9 435.6,111.8c143.6,43.2 287.6,86.7 430.3,131.5c140.5,47.6 280.3,97.5 416.5,155.4c546.3,225.9 1055.9,544.3 1463.1,961.6c201.9,209 378.8,442.1 508.7,697.3c130.2,253.9 216.3,530.7 224.9,805.6c11.8,273.6 -65.3,544.9 -237.8,732c-170.4,189.9 -434.3,279.3 -707.9,282c-275.4,4.5 -558.6,-66.8 -829,-170.6c-270.7,-106.8 -532.3,-245.8 -781.9,-406l-192.6,-123l-99.2,-62.9l-101.5,-59.1l-101.7,-58.9l-103.7,-55l-103.8,-54.7l-105.8,-50.8c-282.1,-135.3 -574.3,-248.8 -873.6,-339.6c-598.2,-180.5 -1226.2,-277.9 -1861.1,-235.7c-158.6,13 -317.6,31.2 -475.2,68.1c-157.5,35.2 -314.7,82.1 -465.7,154c-150.7,70.7 -297.3,162.8 -421.8,288.2c-124.5,124.4 -222.4,286.2 -267.7,462c-8.9,44 -20.4,88.2 -25.8,132.6l-9.3,133.2l4.7,123.6l2.5,61.8c1.8,20.7 5.2,41.4 7.8,62.1l17.3,124.2l30.1,123.4c8.4,41.5 24.8,81.2 39.3,121.4c14.9,40.1 28.1,80.8 49.1,118.5c70.6,156.9 176.8,296.8 297.1,414.8c120.7,118.3 256.2,217.3 397.7,296.5c141.2,80.4 286.7,148.6 433.7,205.3c146.8,58.6 294.8,108 442.7,154c295.9,91.8 591.7,169.2 882.7,251.9c290.9,82.9 578.7,168.9 854.9,276.7c275.8,107.8 542.2,234.3 782.7,395.1l88.3,62.5l44.2,31.3l43.2,34.8l173,138.9l43.3,34.7l40.7,37.3l81.4,74.5c54.1,49.9 110.2,98 158.9,152.6c208.2,206.7 387.3,438.9 529,689.2c19.6,30.4 34.6,63 50.5,95.1l47.6,96.4c30.2,64.9 54.4,132.2 81.5,198.3c44,135.6 85.1,272.5 105.2,414.2c22.8,141.3 34.2,284.1 35.2,431l0.1,111.6c-0.5,37.6 0.5,79.3 -1.3,113.6l-5,102.1c-3.4,35.1 -8.6,71.1 -12.7,106.6c-38.2,286.9 -111.7,579.7 -195,866.4c-84.8,287 -180.8,571.8 -290.4,851.1c-220.4,557.4 -481.1,1101.8 -811,1595.1l-61.3,92.8l-65.7,89c-44.8,58.8 -85.7,120 -133.4,177c-92.5,116 -189.6,227.9 -290.1,336.3c-201.8,216.1 -421.1,414.9 -658.7,588.6c-474.6,347.5 -1014.9,604.1 -1588.2,748.2l-107.3,27.6l-53.7,13.8l-54.5,10.7l-217.8,43c-72.7,14 -146.7,21.5 -220,32.6c-73.4,10.3 -146.7,21.7 -221.1,26.3c-296.6,31.9 -591.1,37.1 -886,18.3c-73.5,-6.8 -147.3,-9.6 -220.5,-19.4l-219.7,-28.7l-218.4,-39.5c-72.7,-13.2 -144.6,-32.2 -216.9,-47.9c-288.4,-69.4 -572.9,-159.3 -853.1,-264.5c-560.7,-210.9 -1105.7,-476.4 -1659.3,-732.5c-276.9,-128.4 -554.8,-257.1 -837.1,-378.2c-283.1,-119.2 -568.5,-235.1 -859.4,-337.9c-72.5,-26.1 -146,-49.9 -219,-74.9c-72.9,-25.1 -146.1,-49.3 -220.1,-71.4l-221.4,-67.9l-223.7,-60.5c-74.3,-21 -149.4,-39.1 -224.7,-56.6l-225.5,-52.9l-227.5,-44.1l-113.6,-22l-114.3,-18.2c-609.5,-97.5 -1227.2,-139.1 -1840.1,-110c-29.5,1.3 -52.3,26.4 -50.9,55.9c1.3,26.9 22.4,48.2 48.5,50.7"/>
    <path fill="#e0a085" fill-rule="nonzero" id="path92" d="m6035.763614,30306.623444c-34.1,-127 -77.4,-282.3 -146,-438.4l146,438.4"/>
    <path fill="#000072" fill-rule="nonzero" id="path94" d="m5912.663614,29858.123444l-46.6,18l146,438.4l47.9,-14.4c-35.7,-132.7 -79.3,-287.2 -147.3,-442"/>
    <path fill="#000072" fill-rule="nonzero" id="path96" d="m12254.563614,35653.823444c-400.7,-198.6 -688.2,-527.3 -859.9,-913.8c-172.7,-387 -231.4,-821.2 -212.1,-1245.9c21.9,-425.8 121.6,-848 298.2,-1233.6c88.6,-192.5 194.1,-376.8 317.6,-547.6c123.8,-170.7 265.6,-327.4 421.3,-468.9l1.2,-1.1c65.4,-59.4 70.2,-160.6 10.8,-226c-58.5,-64.4 -157.6,-69.9 -223,-13.4c-177.8,153.7 -335.8,329.5 -472.7,519.5c-137.3,189.8 -253.8,394 -346.6,608c-93.9,213.5 -164.9,436.5 -212.4,663.9c-48.5,227.2 -74.7,458.9 -76.7,690.9c-5.3,462.9 82,932.6 294.2,1351c104.8,208.8 250.1,400.5 430.7,550.8c180.3,149.4 396.6,255.9 621.3,291.6c7.4,1.2 14.3,-3.8 15.5,-11.2c0.9,-5.9 -2.3,-11.6 -7.4,-14.2"/>
    <path fill="#9ca9b9" fill-rule="nonzero" id="path98" d="m1334.763614,37893.023444c-505.4,331.1 -2820,1806.4 -3264.25,1425.1c-778.35,-667.7 6.38,-3059.3 196.95,-3600.2l3067.3,2175.1"/>
    <path fill="#ced4dc" fill-rule="nonzero" id="path100" d="m90.363614,38217.523444c-692.4,396 -1503.7,800.6 -1927.1,800.6c-52.6,0 -99.09,-6.2 -138.72,-19.5c39.89,79.4 89.62,146.1 150.12,198.1c6.9,5.9 35.4,25.1 114.8,25.1c158.5,0 519.9,-76.9 1316.5,-491c236.2,-122.9 473.9,-256.4 693.6,-385c-71.5,-41.5 -141.3,-84.4 -209.2,-128.3"/>
    <path fill="#000072" fill-rule="nonzero" id="path102" d="m-1732.536386,35557.823444c-66,0 -127.8,41.2 -151,106.9c-247.68,703.3 -990.59,3053.7 -150.16,3774.8c170.36,146.2 527.46,230.1 1787.26,-424.9c724.3,-376.5 1460.4,-851.2 1668.8,-987.8c74,-48.4 94.6,-147.6 46.2,-221.5c-48.5,-73.9 -147.6,-94.6 -221.6,-46.1c-205.2,134.4 -930,601.9 -1641,971.6c-1195.2,621.3 -1410.6,483.6 -1431.3,465.9c-545.86,-468.3 -209.88,-2138.1 243.7,-3425.6c29.3,-83.4 -14.4,-174.7 -97.8,-204.1c-17.5,-6.2 -35.5,-9.2 -53.1,-9.2"/>
    <path fill="#ff6470" fill-rule="nonzero" id="path104" d="m-1666.736386,38602.123444c0,0 -114.8,40.7 -107.4,-232.8c12.6,-468.8 217.4,-1643.9 759.8,-2067.3c0,0 798,1198.9 1013.9,1338.3c215.8,139.4 -250.6,287.6 -384.4,458.2c-133.9,170.5 -1194.9,546.5 -1281.9,503.6"/>
    <path fill="#cc5070" fill-rule="nonzero" id="path106" d="m-947.136386,37351.123444c-124.3,397.2 -183.8,807.7 -195.8,1058.7c143.6,-59.9 284.5,-125.5 421.2,-197.7c150.4,-79.5 296.8,-166.6 434.4,-263.1c-250.4,-194.6 -470.6,-399.7 -659.8,-597.9"/>
    <path fill="#000072" fill-rule="nonzero" id="path108" d="m-1635.836386,38716.823444c173.8,-36.8 340.8,-83.7 508.1,-137.3c166.7,-53.8 331.5,-115 493.2,-185.3c322.8,-141 637.4,-315.1 915,-554l0,0l122.5,-119l-133.6,-95.2c-56.9,-40.5 -121,-93.7 -179.7,-144.9c-59.6,-52.1 -118.1,-106.5 -174.9,-162.7c-114.1,-112.3 -222.8,-231 -327,-354c-102.3,-124.6 -202.9,-251.4 -294.9,-384.7c-48.2,-65.3 -90.7,-134.3 -136.2,-201.5c-44.1,-68.2 -85.4,-138.1 -128.4,-207.2l-1.4,-2.4c-17.8,-28.5 -55.3,-37.3 -83.9,-19.5c-27.1,16.8 -36.2,51.6 -22,79.5c37.9,73.7 74.3,148.3 113.7,221.4c40.8,72.3 78.8,146.4 122.6,217.2c83.3,144.1 176.1,282.7 271.5,420c97.5,135.8 200.4,268.3 310.6,395.6c54.8,63.9 111.9,126.2 171.2,187c60.4,61.6 118,118.8 190.2,179.7l-11.2,-214.2c-230,231 -512.8,419.1 -811.3,576.8c-149.5,79 -304.1,150.1 -461.7,214.4c-157.3,64 -319.4,122.8 -480.6,169.8l-1.9,0.5c-32.8,9.6 -51.7,43.9 -42.1,76.7c9.1,31.3 40.9,49.8 72.2,43.3"/>
    <path fill="#6d76a4" fill-rule="nonzero" id="path110" d="m4835.263614,28669.923444c57.6,209.1 126.9,386.2 198.6,534.2c83.2,14.3 166.7,29.8 250.4,46.4c349.6,69.5 680.8,203.4 991.2,370.3c180.1,100.7 351.7,214.9 512.8,343.5c47.2,32.1 93.9,65.2 139.7,99.4c298.3,231 563.2,500.5 782.3,813.1c112,86.1 222.3,147.7 320.8,160.6c198.6,26 368.2,57.9 416,152.9c2.2,4.4 4.2,9 5.9,13.7c8.7,24.4 11.1,51.5 8.3,81.3c-7.9,85.2 -57.5,192.3 -117.2,320.3c-4.3,9.1 -8.6,18.4 -13,27.7c-0.9,2 -1.8,3.9 -2.7,5.9c-2.8,6.1 -5.6,12.1 -8.3,18.1c-1.9,4.1 -3.7,8.2 -5.4,12.2l-0.1,0c-58.2,129.7 -83,212.4 -92.8,251.1c-2.2,8.8 3.6,16.6 10.6,16.6c1.5,0 2.9,-0.3 4.4,-1c71,-33.8 309.5,-141.2 471,-141.2c84.3,0 147.7,29.2 155.4,113.4c12.6,136.3 -212.1,542.4 -296.2,961.2c-243.6,1214.3 -311.7,1453.7 -311.7,1453.7c-1.7,7.8 -220.9,924.9 -546.4,1561.1c10.2,38.6 21.1,80.7 32.6,125.7l413.7,-121.5l0,0c-50,-190.4 -96,-345.2 -130,-446.8c330,-636.8 552.8,-1568.4 554.4,-1576.4c0,0 68,-239.2 311.6,-1453.6c84.4,-418.8 308.8,-824.8 296.4,-961.2c-7.8,-84.2 -71.2,-113.5 -155.4,-113.5c-161.6,0 -400,107.5 -471,141.5c-1.4,0.6 -2.9,0.9 -4.3,0.9c-7.1,0 -12.9,-7.9 -10.9,-16.9c10.8,-42 39.2,-136.4 109.6,-286.8c86.4,-186.4 157.2,-330.4 121.6,-429.6c-38,-105.6 -214,-139.2 -421.6,-166.4c-378.4,-49.6 -932.4,-817.6 -1081.6,-936.4l-1.2,-1.2c-206,-185.2 -431.6,-344.4 -672.8,-479.2c-310.4,-166.8 -641.6,-300.8 -991.2,-370.4c-261,-51.9 -519.7,-92.1 -773.5,-122.7"/>
    <path fill="#000072" fill-rule="nonzero" id="path112" d="m4663.963614,28650.623444c50.8,199.5 112.1,372.8 177.4,522.3c63.9,9.7 128.2,20.2 192.5,31.2c-71.7,-148 -141,-325.1 -198.6,-534.2c-57.4,-6.9 -114.4,-13.4 -171.3,-19.3"/>
    <path fill="#6d76a4" fill-rule="nonzero" id="path114" d="m8155.163614,35888.623444l0,0l-413.7,121.5c9.3,36.4 18.9,74.7 28.8,114.9c97.8,339.2 229.8,879.2 306.6,1441.5c129.4,54.7 256.8,110.3 382.2,166.2c-10.8,-253.2 -40.2,-515.4 -79.5,-769.7c-61.2,-399.6 -147.2,-779.6 -224.4,-1074.4"/>
    <path fill="#9094bc" fill-rule="nonzero" id="path116" d="m8076.863614,37566.523444c18.2,133.1 33.2,267.3 44,400.6c53.1,22 106.1,44.1 159,66.4c60.2,25.8 120.3,52 180.1,78.5c5.3,-122.6 4.6,-249.8 -0.9,-379.3c-125.4,-55.9 -252.8,-111.5 -382.2,-166.2"/>
    <path fill="#000072" fill-rule="nonzero" id="path118" d="m8120.863614,37967.123444c5.2,63.7 9.4,127.2 12.4,190.2c106,45.2 210.6,90.9 313.9,136.9c5.9,-59.4 10.1,-120.2 12.8,-182.2c-59.8,-26.5 -119.9,-52.7 -180.1,-78.5c-52.9,-22.3 -105.9,-44.4 -159,-66.4"/>
    <path fill="#9ca9b9" fill-rule="nonzero" id="path120" d="m5284.263614,29250.523444c349.6,69.5 680.8,203.4 991.2,370.3c241.3,134.9 467.1,293.9 673.1,479.4l1.3,1.1c149.2,118.5 702.9,886.6 1081.2,936.1c207.8,27.2 383.8,60.9 421.8,166.5c35.7,99.2 -35.1,243.4 -121.8,429.5c-70.2,150.6 -98.7,245.1 -109.3,287.2c-2.6,10.6 6.2,19.8 15,15.6c108,-51.4 603.8,-273.4 626.4,-27.8c12.6,136.3 -212.1,542.4 -296.2,961.2c-243.6,1214.3 -311.7,1453.7 -311.7,1453.7c-1.7,7.8 -224.4,939.6 -554.2,1576.3c203.1,609.6 856.4,3141 33.7,3753.3c-469.7,349.7 -2095.2,-829 -2576.4,-1194.2c-608.7,331.6 -1450.4,575.8 -2214.3,593.7c-154.5,4 -305.5,1.6 -453.2,-7.3c-3.8,0.2 -7.7,-0.2 -11.2,-0.6c-555,-31.2 -1043,-197.7 -1513.3,-378.1c-1828.9,-705.1 -2775.1,-2449.2 -2775.1,-2449.2c-227.8,-423.1 -407.63,-805.9 -539.42,-1196c-65.23,-191.3 -118.6,-384 -160.29,-584c0,0 -0.82,-3.5 -2.15,-10.8l2.15,10.8c0,0 -124.93,-580.4 -318.07,-1803.8c-66.61,-422 -274.3,-837 -256.09,-972.7c32.81,-244.4 518.93,-2 624.73,53.8c8.58,4.6 17.82,-4.3 15.6,-15c-8.86,-42.5 -33.39,-138.1 -97.25,-291.5c-78.92,-189.5 -143.7,-336.5 -103.93,-434.1c42.35,-104 221.88,-123.9 429.17,-93.5c312.35,45.7 536.65,-286.8 536.65,-286.8c34.1,-50.3 166.9,-186.4 167.2,-186.7c573.8,-547.8 1283.5,-873.3 2191.8,-1133.3c0,0 2208.6,-498.8 4602.9,-23.1"/>
    <path fill="#7c7cb6" fill-rule="nonzero" id="path122" d="m444.463614,29344.423444c-117.9,24.8 -182.6,40.8 -182.6,40.8c-404.2,136 -777.6,308 -1112.3,518.5c378.7,-229.5 806.6,-406.8 1294.9,-559.3"/>
    <path fill="#4c5295" fill-rule="nonzero" id="path124" d="m6788.263614,29964.323444c54.6,43.6 108.1,88.9 160.3,135.9l1.3,1.1c110.3,87.7 442,530.7 760.4,775.5c-219.1,-312.6 -484,-582.1 -782.3,-813.1c-45.8,-34.2 -92.5,-67.3 -139.7,-99.4"/>
    <path fill="#7c7cb6" fill-rule="nonzero" id="path126" d="m-1678.136386,30594.223444l-0.4,0.4c-20.3,26.1 -40,50.1 -59.1,72.1c0.1,0.1 0.3,0.2 0.5,0.3c35.1,-38.5 55.7,-68 59,-72.8"/>
    <path fill="#000072" fill-rule="nonzero" id="path128" d="m-1737.636386,30666.723444c-5.6,6.3 -11.1,12.5 -16.6,18.5c6,-6.2 11.7,-12.3 17.1,-18.2c-0.2,-0.1 -0.4,-0.2 -0.5,-0.3"/>
    <path fill="#4c5295" fill-rule="nonzero" id="path130" d="m8447.063614,31190.323444c2.2,4.4 4.1,9 5.8,13.6c8.8,24.4 11.1,51.6 8.4,81.4c2.8,-29.8 0.4,-56.9 -8.3,-81.3c-1.7,-4.7 -3.7,-9.3 -5.9,-13.7m-103,415.3c-4.3,9.1 -8.6,18.4 -13,27.8c-0.9,1.9 -1.8,3.8 -2.7,5.8c0.9,-2 1.8,-3.9 2.7,-5.9c4.4,-9.3 8.7,-18.6 13,-27.7m-24,51.7c-1.9,4.1 -3.7,8.1 -5.5,12.2l0.1,0c1.7,-4 3.5,-8.1 5.4,-12.2"/>
    <path fill="#6d76a4" fill-rule="nonzero" id="path132" d="m3139.463614,29062.123444c-1219.4,0 -2282.4,195.4 -2695,282.3c-488.3,152.5 -916.2,329.8 -1294.9,559.3c-311.3,195.8 -589.1,425.1 -827.2,689.9l0,0l0,0l0,0.3l-0.5,0.3c-3.3,4.8 -23.9,34.3 -59,72.8c-5.4,5.9 -11.1,12 -17.1,18.2c-8.7,9.6 -17.3,18.8 -25.8,27.5c-131.45,136.2 -236.83,174.3 -347.72,174.3c-28.36,0 -57.06,-2.5 -86.66,-6.5c-56.84,-7.7 -111.55,-11.9 -161.88,-11.9c-133.5,0 -236.29,29.9 -267.06,105.4c-39.88,97.4 37.75,233 125.3,417.5c7.94,16.4 15,32.4 21.5,47.3c32.94,-5.5 69.58,-8.1 108.88,-8.1c50.25,0 104.85,4.3 161.62,12c29.59,4 58.32,6.5 86.66,6.5c110.9,0 216.25,-38.1 347.66,-174.3c32.3,-33.1 66,-72.4 101.5,-118.1l0.9,-0.7l0,-0.4c494,-549.4 1159.3,-945.7 1939.5,-1208.3c0,0 1309.9,-323.1 2877.6,-323.1c1282.2,0 2736.8,216.1 3788.5,1001.6c326.9,253.1 613.7,552.5 843.9,904.1c51.3,78.2 138.2,126.3 230.6,126.3c7.9,0 15.7,-0.4 23.6,-1.1l2,-0.2c41.9,-3.9 82.6,-6 121.1,-6c67,0 127.5,6.3 177.1,20.5c1.8,-4.1 3.6,-8.1 5.5,-12.2c2.7,-5.9 5.5,-12 8.3,-18.1c0.9,-2 1.8,-3.9 2.7,-5.8c4.4,-9.4 8.7,-18.7 13,-27.8c59.7,-128 109.2,-235.2 117.2,-320.3c2.7,-29.8 0.4,-57 -8.4,-81.4c-1.7,-4.6 -3.6,-9.2 -5.8,-13.6c-38,-74.1 -152.7,-103.5 -297.3,-103.5c-38.7,0 -79.6,2.1 -121.8,6.1c-22.1,2 -43.7,3.2 -65,3.2c-41.1,0 -80.9,-4.6 -121,-16.7c-41.8,-69.5 -85.8,-137 -131.7,-202.6c-318.4,-244.8 -650.1,-687.8 -760.4,-775.5l-1.3,-1.1c-52.2,-47 -105.7,-92.3 -160.3,-135.9c-1038.4,-704.5 -2422.6,-902.1 -3648.8,-902.2"/>
    <path fill="#ffffff" fill-rule="nonzero" id="path134" d="m3615.863614,31132.823444c-45.9,-699.3 -795.6,-876.9 -1702,-817.4c-906.5,59.4 -1626.5,333.4 -1580.6,1032.8c45.9,699.4 785.1,1321 1691.6,1261.5c906.4,-59.5 1636.9,-777.5 1591,-1476.9"/>
    <path fill="#000072" fill-rule="nonzero" id="path136" d="m3787.963614,33110.223444c95,-210.2 211.3,-413.6 361,-552.5c149.3,-141.3 325.9,-202.3 528.7,-184.8c100.5,6.9 195.9,28.7 279.7,71.9c84.1,42.5 156.9,106.4 215.8,187.6c119.3,162.9 174.8,387.1 181.9,617.8l0,1.2c0.9,29.8 25.8,53.3 55.6,52.3c23.6,-0.7 43.2,-16.5 49.9,-37.8c75.2,-241.1 67.7,-521.1 -61.7,-771.2c-65,-123.8 -166.5,-235.5 -291.2,-311.3c-124.7,-76.5 -266.8,-115.4 -404.3,-127.5c-135.8,-14.5 -286.9,-0.4 -422.4,55.5c-136.9,53.5 -253.6,147 -341.2,253.2c-89,106.5 -148.4,227.6 -191,349.6c-40.9,123.6 -66.2,246.9 -65.9,377.7c0.1,29.9 24.4,54.1 54.2,54c21.9,-0.1 40.7,-13.1 49.2,-31.8l1.7,-3.9"/>
    <path fill="#000072" fill-rule="nonzero" id="path138" d="m-1033.736386,33532.723444c40.7,-214.5 101.1,-427.4 205.6,-587.8c103.9,-162.5 248.5,-257.3 436.6,-288.8c92.9,-17.1 184.3,-19.6 270.1,-0.2c85.8,18.7 166.6,59.3 239.2,118.8c146.8,119.5 251.2,310.4 313.8,519.7l0.4,1.2c8.5,28.6 38.7,44.9 67.2,36.3c22.3,-6.6 37.1,-26.5 38.5,-48.5c14.6,-239.7 -57.1,-496.5 -235.3,-697.9c-89.1,-99.4 -209.4,-179.2 -342.9,-220.1c-133.6,-41.6 -274.5,-44 -404.5,-22.9c-128.9,18.7 -265.7,67.5 -377.9,151.5c-114.3,82.1 -200.1,196.6 -255.7,315.6c-56.3,119.7 -83.2,245.3 -92.6,368.1c-7.4,123.7 -1.3,242.9 31.2,363.3c7.8,28.9 37.5,46 66.4,38.2c20.7,-5.6 35.3,-22.4 39.1,-42.1l0.8,-4.4"/>
    <path fill="#b2b2d4" fill-rule="nonzero" id="path140" d="m2258.763614,31104.823444c-281,0 -449,250.7 -449,250.7c-83.8,-110.7 -234.7,-202.7 -407.1,-202.7c-87.4,0.1 -180.4,23.7 -273,80.6c-95.3,58.6 -121.1,156.7 -120.6,247.3c12.7,-60 48.7,-122.2 100.5,-163.7l20.9,-16.6c6.8,-4.9 13.3,-8.3 20,-12.5l40.4,-23.5c29.3,-12.5 58.5,-26 90.8,-32c31.9,-8 65.1,-11.9 98.1,-11.9c31.9,0 63.6,3.7 93.7,10.7c61.6,13.6 117.6,38.5 167.9,68.3c60.8,37.9 114.4,81.3 162.7,129.7c11,-12.7 22.3,-25.2 34.1,-37.9c41.6,-43.4 87.5,-84.1 139.2,-119.9c53.3,-34 111,-65.5 177.1,-81.8c32.2,-9.2 67,-13.4 100.9,-15.9c34.3,1.1 69.4,-1.3 102.6,7.1l50,10.7c15.9,5 31.2,11.4 46.8,17.2c15.5,6.6 30.6,10.9 46.3,19.6l46.9,28.6c60.7,43.1 108.1,107.6 128.1,174.5c1.3,4.1 2.5,8.2 3.6,12.4c-10.5,-103.5 -53.4,-217.1 -177.8,-278.4c-88.1,-43.4 -169.5,-60.6 -243.1,-60.6"/>
    <path fill="#ffffff" fill-rule="nonzero" id="path142" d="m1112.963614,31808.823444c0,0 -124.1,-303.3 72.5,-424.1c253.6,-156 508.2,48.9 624.7,202.8c0,0 269.3,-434.6 640.6,-265.7c248.6,113 147.4,461.3 147.4,461.3l-1485.2,25.7"/>
    <path fill="#000072" fill-rule="nonzero" id="path144" d="m1128.363614,31802.523444c-0.7,-99.6 5.7,-198.6 38.8,-262.1c16.7,-31.4 36.5,-50.1 61.3,-63.7c9.3,-7.4 31.6,-14.4 46.8,-22.1c17.6,-3.5 33.8,-11.2 50.9,-12.5c66.4,-12.7 138.4,3.6 211.6,39.9c72,38.2 141.1,97.4 192.4,166.1l84.4,112.7l80.8,-120.4c22.6,-33.7 55.6,-74.4 89,-106c33.8,-32.9 70.5,-61.1 108,-84.7c76.9,-43.7 154.5,-65.9 230.7,-52.3l29.1,4.1c9.6,2.5 19.2,6.4 28.9,9.4c9.3,3.2 20.4,5.8 28.5,9.3c7.6,3.9 15.3,7.4 23.4,10.7c28.6,16.4 50.6,39.3 70.8,71.7c40.3,65.5 60.6,166.8 78.4,275.9l0.2,1.5c1.6,9.7 10.7,16.3 20.4,14.7c4.7,-0.8 8.7,-3.4 11.4,-6.9c36.4,-48.9 58.3,-103.9 71.1,-163.9c11.5,-59.8 11.8,-125.7 -9.2,-192.5c-20,-66.9 -67.4,-131.4 -128.1,-174.5l-46.9,-28.6c-15.7,-8.7 -30.8,-13 -46.3,-19.6c-15.6,-5.8 -30.9,-12.2 -46.8,-17.2l-50,-10.7c-33.2,-8.4 -68.3,-6 -102.6,-7.1c-33.9,2.5 -68.7,6.7 -100.9,15.9c-66.1,16.3 -123.8,47.8 -177.1,81.8c-51.7,35.8 -97.6,76.5 -139.2,119.9c-41.8,44.8 -76.9,87.6 -113.2,143.4l165.1,-7.7c-69,-88.8 -149.4,-165.5 -248.7,-227.5c-50.3,-29.8 -106.3,-54.7 -167.9,-68.3c-61.1,-14.3 -128.9,-14.6 -191.8,1.2c-32.3,6 -61.5,19.5 -90.8,32l-40.4,23.5c-6.7,4.2 -13.2,7.6 -20,12.5l-20.9,16.6c-55.7,44.6 -93.1,113.1 -102.9,177.1c-11.7,64.2 -2.7,124 14,177.1c16.7,53.5 42.1,101.3 76.9,143.9c6,7.4 17,8.6 24.4,2.5c4.3,-3.5 6.4,-8.5 6.4,-13.5l0,-1.6"/>
    <path fill="#b2b2d4" fill-rule="nonzero" id="path146" d="m2567.463614,31783.723444l-6.3,0.1c1,6 2.2,11.9 3.4,17.5c0.8,-5.4 1.8,-11.3 2.9,-17.6m-754,13l-130.4,2.2c27.1,30.8 50.9,60.1 69.7,85c0,0 22.2,-36.2 60.7,-87.2"/>
    <path fill="#b2b2d4" fill-rule="nonzero" id="path148" d="m2277.563614,31393.423444c-61.4,0 -123.6,21.3 -185.2,56.3c-37.5,23.6 -74.2,51.8 -108,84.7c-33.4,31.6 -66.4,72.3 -89,106l-80.8,120.4l-84.4,-112.7c-51.3,-68.7 -120.4,-127.9 -192.4,-166.1c-56.6,-28.1 -112.5,-44.2 -165.6,-44.2c-15.6,0 -30.9,1.4 -46,4.3c-17.1,1.3 -33.3,9 -50.9,12.5c-15.2,7.7 -37.5,14.7 -46.8,22.1c-24.8,13.6 -44.6,32.3 -61.3,63.7c-26.2,50.3 -35.6,122.6 -38.1,200c3.8,17.7 7.5,33.7 10.4,47.4c14.7,-52.2 38.4,-152.8 70,-199.1c25.6,-37.3 59,-53 97,-53c114.8,0 271.1,143.3 376.6,263.2l130.4,-2.2c91.7,-121.6 276.1,-327.4 473.4,-327.4c54.5,0 110.1,15.7 164.9,53.3c87.1,59.8 94.8,179.5 109.4,261.2l6.3,-0.1c2.3,-13.9 5,-30 7.5,-47.7c-16.2,-92.6 -36.2,-176.5 -71.2,-233.4c-20.2,-32.4 -42.2,-55.3 -70.8,-71.7c-8.1,-3.3 -15.8,-6.8 -23.4,-10.7c-8.1,-3.5 -19.2,-6.1 -28.5,-9.3c-9.7,-3 -19.3,-6.9 -28.9,-9.4l-29.1,-4.1c-15.1,-2.7 -30.3,-4 -45.5,-4"/>
    <path fill="#000072" fill-rule="nonzero" id="path150" d="m2278.363614,31282.823444c-279.3,0 -468.3,304.7 -468.3,304.7c-86.9,-115.1 -251.3,-258.6 -434.6,-258.6c-61.9,0 -126.1,16.4 -190.1,55.8c-110.8,68.2 -80.3,244.8 -56.3,355.7c2.5,-77.4 11.9,-149.7 38.1,-200c16.7,-31.4 36.5,-50.1 61.3,-63.7c9.3,-7.4 31.6,-14.4 46.8,-22.1c17.6,-3.5 33.8,-11.2 50.9,-12.5c15.1,-2.9 30.4,-4.3 46,-4.3c53.1,0 109,16.1 165.6,44.2c72,38.2 141.1,97.4 192.4,166.1l84.4,112.7l80.8,-120.4c22.6,-33.7 55.6,-74.4 89,-106c33.8,-32.9 70.5,-61.1 108,-84.7c61.6,-35 123.8,-56.3 185.2,-56.3c15.2,0 30.4,1.3 45.5,4l29.1,4.1c9.6,2.5 19.2,6.4 28.9,9.4c9.3,3.2 20.4,5.8 28.5,9.3c7.6,3.9 15.3,7.4 23.4,10.7c28.6,16.4 50.6,39.3 70.8,71.7c35,56.9 55,140.8 71.2,233.4c18.5,-129 31.7,-343.4 -124.3,-414.2c-60.3,-27.5 -118,-39 -172.3,-39"/>
    <path fill="#000072" fill-rule="nonzero" id="path152" d="m1828.163614,32095.823444c-2.6,-39 -3.4,-81.4 -2.8,-121.8c0.8,-40.8 2.9,-81.3 7.5,-120.5c4.8,-39.1 10.6,-77.8 20.6,-112.5c9.7,-34.5 22.5,-66.4 37.1,-88.1c37.6,-55.7 22.9,-131.4 -32.8,-169c-55.7,-37.6 -131.4,-22.9 -169,32.9c-6.2,9.2 -11,19 -14.4,29.1l-3.2,9.8c-18.8,56.7 -24.2,108.6 -26.1,158.1c-1.8,49.6 2.3,96.2 7.5,142.1c5.4,45.7 13.7,90.1 23.2,133.9c9.8,44.1 20.5,85.9 34.2,130.4c9.9,32 43.8,49.9 75.8,40c27.3,-8.5 44.4,-34.5 42.6,-61.8l-0.2,-2.6"/>
    <path fill="#000072" fill-rule="nonzero" id="path154" d="m2495.463614,32203.323444c-33.8,-191.1 -411.3,-301.2 -685.7,-299.7c-207.1,1 -537.5,140.4 -534.9,348c2,163.9 188.3,279.7 681.3,235.1c403.1,-36.5 561.9,-155.8 539.3,-283.4"/>
    <path fill="#9999c7" fill-rule="nonzero" id="path156" d="m1786.263614,32255.223444c-0.4,0 -0.7,0 -1,0c-40.8,0.3 -187.3,2.7 -195.8,40.6c-8.5,37.8 32.8,72.5 168.5,83.7c19.3,1.6 36.8,2.3 52.6,2.3c85.6,0 122.7,-21.8 129.3,-51c7.7,-34.4 -81.9,-75.6 -153.6,-75.6"/>
    <path fill="#9ca9b9" fill-rule="nonzero" id="path158" d="m4576.963614,38005.323444c481.2,365.3 2688.1,1997.3 3157.8,1647.6c822.7,-612.3 74,-3411.2 -78.7,-3964l-3079.1,2316.4"/>
    <path fill="#8080b9" fill-rule="nonzero" id="path160" d="m-3005.296386,31563.223444c-34.41,11.9 -60.03,34.3 -71.76,72.1c11.82,-37.7 37.41,-60.3 71.8,-71.9c-0.01,-0.1 -0.03,-0.1 -0.04,-0.2"/>
    <path fill="#80f6fc" fill-rule="nonzero" id="path162" d="m-2665.056386,33605.823444c48.63,277.4 87.47,483.8 114.32,621.5c-26.83,-137.7 -65.66,-344.1 -114.32,-621.5m156.31,830c0.14,0.8 0.2,1.2 0.2,1.2c6.19,29.5 12.62,58.9 19.29,88.1c-6.65,-29.1 -13.05,-58.5 -19.19,-87.9c0,0 -0.01,-0.1 -0.03,-0.2l0.03,0.2c0,0 -0.02,-0.1 -0.06,-0.3c-0.05,-0.2 -0.13,-0.6 -0.24,-1.1"/>
    <path fill="#ced4dc" fill-rule="nonzero" id="path164" d="m-1756.336386,36307.123444l0,0c32.8,54 80.7,130.2 143.8,222.8c-63.1,-92.6 -111.1,-168.8 -143.8,-222.8"/>
    <path fill="#8080b9" fill-rule="nonzero" id="path166" d="m-1846.536386,36146.523444c12.4,23.4 25,46.9 37.7,70.6c0,0 17.6,32.3 52.5,90l0,0c-34.9,-57.6 -52.4,-89.9 -52.4,-89.9c-12.8,-23.7 -25.4,-47.3 -37.8,-70.7"/>
    <path fill="#80f6fc" fill-rule="nonzero" id="path168" d="m5158.363614,38458.723444c-608.7,331.6 -1450.4,575.8 -2214.3,593.7c-11.5,0.3 -22.9,0.5 -34.3,0.8c11.5,-0.3 22.9,-0.5 34.5,-0.8c763.7,-18 1532.1,-172.1 2220.1,-538.5l-21.2,-39.7c201.3,143.9 461.9,323.4 741.7,500.5c-308.1,-203.9 -574.4,-400.6 -726.5,-516m-4274.1,175.1c27.2,11.1 54.5,22 82,32.6c3.1,1.2 6.2,2.4 9.3,3.6c-3.1,-1.2 -6.1,-2.4 -9.2,-3.6c-27.6,-10.6 -54.9,-21.5 -82.1,-32.6m1261.1,375.3c108.9,16.8 220.2,29 334.4,35.4c2.3,0.3 4.7,0.6 7.4,0.6c0.2,0 0.5,0 0.8,0c-2.9,0 -5.7,-0.3 -8.3,-0.6c-114.1,-6.4 -225.4,-18.6 -334.3,-35.4m5925.8,85.3c-3.6,5.7 -7.4,11.5 -11.2,17.1c-62.6,233.6 -166.5,423.3 -325.2,541.4c-4.2,3.2 -8.6,6.2 -13,9.1c4.4,-2.8 8.7,-5.8 12.9,-8.9c164.6,-122.8 271.8,-319 336.5,-558.7"/>
    <path fill="#ced4dc" fill-rule="nonzero" id="path170" d="m-3005.256386,31563.423444c-34.39,11.6 -59.98,34.2 -71.8,71.9c-2.42,7.8 -4.25,16.2 -5.45,25.4c-18.36,135.7 189.38,550.9 256.11,972.5c61.25,388.4 115.62,711.9 161.34,972.6c48.66,277.4 87.49,483.8 114.32,621.5c21.23,108.9 34.98,174.8 40.17,199c0.97,4.8 1.54,8 1.82,9.5c0.11,0.5 0.19,0.9 0.24,1.1c0.04,0.2 0.06,0.3 0.06,0.3l-0.03,-0.2c0.02,0.1 0.03,0.2 0.03,0.2c6.14,29.4 12.54,58.8 19.19,87.9c38.59,169 85.44,333 141.26,496c124.35,368.3 291.58,730 501.46,1125.4c12.4,23.4 25,47 37.8,70.7c0,0 17.5,32.3 52.4,89.9c32.7,54 80.7,130.2 143.8,222.8c356.8,523.9 1197.1,1573.3 2496.8,2103.9c27.2,11.1 54.5,22 82.1,32.6c3.1,1.2 6.1,2.4 9.2,3.6c370.8,141.9 752.7,274.7 1169.8,339.1c108.9,16.8 220.2,29 334.3,35.4c2.6,0.3 5.4,0.6 8.3,0.6c1,0 2,-0.1 3,-0.2c101.5,6.3 204.6,9.3 309.3,9.3c36.3,0 72.8,-0.3 109.5,-1c11.4,-0.3 22.8,-0.5 34.3,-0.8c763.9,-17.9 1605.6,-262.1 2214.3,-593.7c152.1,115.4 418.4,312.1 726.5,516c588.1,372.5 1260.6,734.7 1643.3,734.7c77.4,0 143,-14.9 193.6,-47.4c4.4,-2.9 8.8,-5.9 13,-9.1c158.7,-118.1 262.6,-307.8 325.2,-541.4c-7.6,11.5 -15.5,22.7 -23.6,33.6c-59.1,221.7 -155.6,399.2 -301.6,507.8c-45,33.5 -105.8,48.8 -179.6,48.8c-585.1,0 -1980.7,-963.2 -2670.7,-1467.6c-597.7,304.8 -1209.8,406.6 -1932.4,423.5c-48.3,1.2 -96.3,1.9 -144,1.9c-104.5,0 -207.5,-3 -308.9,-9.4c-1.3,0.2 -2.5,0.3 -3.8,0.3c-2.6,0 -5.1,-0.3 -7.4,-0.6c-555.3,-31.3 -1043,-197.8 -1513.5,-378.2c-1828.8,-705.1 -2866,-2400.8 -2866,-2400.8c-227.93,-423.2 -316.53,-854.4 -448.59,-1244.5c-65.15,-191.2 -118.61,-383.7 -160.21,-584.1c0,0 -0.91,-3.4 -2.02,-10.6c-17.94,-83.7 -137.92,-665 -315.84,-1793.1c-38.66,-245 -125.2,-488.1 -187.06,-675.1"/>
    <path fill="#ced4dc" fill-rule="nonzero" id="path172" d="m5195.363614,38052.923444l-208.1,126.8c-34.2,18.8 -68.5,37 -102.8,54.4c690,504.4 2085.6,1467.6 2670.7,1467.6c73.8,0 134.6,-15.3 179.6,-48.8c146,-108.6 242.5,-286.1 301.6,-507.8c-44.1,59.8 -94.9,111.8 -152.7,154.6c-54.1,40.3 -126.5,58.5 -213.5,58.5c-592.6,0 -1853.3,-845.4 -2474.8,-1305.3"/>
    <path fill="#ff6470" fill-rule="nonzero" id="path174" d="m7522.163614,38920.523444c0,0 111.7,48.5 123.3,-224.9c19.9,-468.5 -103.2,-1654.9 -615,-2114.9c0,0 -879,1140.8 -1104,1264.9c-225,124.1 230,304.3 351.8,483.7c121.7,179.4 1154.2,627.9 1243.9,591.2"/>
    <path fill="#7d87ab" fill-rule="nonzero" id="path176" d="m5884.763614,37978.023444l0,0l0,0m0,0.1c70.7,105.3 310.1,228.5 393.4,351.3c35.4,52.3 147.8,127.1 291.6,206.1c-143.8,-79.1 -256.2,-154 -291.5,-206.2c-83.3,-122.7 -322.7,-245.9 -393.5,-351.2"/>
    <path fill="#cc5070" fill-rule="nonzero" id="path178" d="m6682.363614,37020.723444c-271.8,335.6 -624.7,752.5 -755.7,825c-71.1,39.1 -74.5,83.8 -41.9,132.3l0,0l0,0.1c70.8,105.3 310.2,228.5 393.5,351.2c35.3,52.2 147.7,127.1 291.5,206.2c132.3,72.7 291.2,148.9 441.2,214.3c0.2,-3.7 0.3,-7.8 0.5,-11.8c15.7,-364.6 -55.3,-1164.1 -329.1,-1717.3"/>
    <path fill="#000072" fill-rule="nonzero" id="path180" d="m7519.863614,38914.423444c-157.5,-58 -315.2,-127.9 -467.7,-202.5c-152.8,-75.2 -302,-156.8 -445.8,-245.9c-286.8,-178 -555.9,-385.2 -769.4,-631.6l0,0l-25.9,212.9c76.2,-55.8 137.6,-108.8 202.2,-166c63.3,-56.7 124.5,-114.8 183.7,-174.7c118.7,-119.5 230.6,-244.5 337.1,-373.3c104.7,-130.3 206.9,-262.1 300,-400.2c48.6,-67.5 91.6,-138.8 137.3,-208.1c44.4,-70.2 85.8,-142.2 128.7,-213c17.5,-28.8 8.3,-66.2 -20.5,-83.6c-27.2,-16.5 -62.3,-9.1 -80.7,16.2l-1.8,2.5c-47.7,66 -93.7,132.9 -142.4,197.8c-50,64 -97.3,129.8 -149.8,191.6c-101,126.6 -210.2,246.2 -320.9,363.3c-112.4,115.6 -229.1,226.5 -350.6,330.6c-60.6,52.2 -122.7,102.3 -185.8,150.2c-62.1,47 -129.8,95.6 -189.3,132.1l-139.9,85.7l114,127.2l0,0c260.4,257.5 562.3,453 874.5,616c156.5,81.3 316.6,153.8 479.2,219c163.1,65.1 326.5,123.4 497.3,172.1c32.9,9.4 67.1,-9.7 76.5,-42.6c8.9,-31.2 -7.9,-63.8 -37.9,-74.9l-2.1,-0.8"/>
    <path fill="#000072" fill-rule="nonzero" id="path182" d="m8376.863614,31959.923444l0.1,-0.3l-0.1,0.3zm-208.9,-168.2l1.1,-0.5l-1.1,0.5zm-10766.9,-59.6l-0.1,-0.5l0.1,0.5zm7883.2,-2481.6l0.5,0l-0.5,0zm-4563.6,178.3c107.8,-23.4 2249.7,-475 4532.4,-21.3c307.3,61 616.9,176.9 946.7,354.3c230.5,128.9 444.5,280.8 634,450.4l19.6,23l11.9,4.7c35,33.6 98.6,105.8 160.5,176.1c341.5,387.8 673.7,739.4 984.5,780.1c162.6,21.3 260.9,44.1 292.8,67.9c2.1,46.7 -60.4,180.5 -106.6,279.3l-10.4,22.5c-75.6,162.1 -107.3,267.4 -119.4,315.8c-16.5,65.1 6.2,134.8 58.1,177.2c50.9,41.5 122,50.1 181.3,21.7c182,-86.7 324,-122.7 392.1,-125.9c-14.7,57.4 -55,163.1 -88.7,251.3c-68.2,178.9 -153,401.5 -199.3,632.2c-237.4,1182.8 -306.1,1431.7 -308.9,1441.7l-2.8,11.3c-1.4,5.8 -220.7,919.4 -539.5,1534.9l-31.1,60l21.3,64.1c304.7,914 750.3,3083.1 90.1,3574.4c-241.3,179.8 -1221.7,-310.9 -2384.1,-1193.2l-82.5,-62.6l-90.8,49.5c-620.1,337.7 -1440.7,557.8 -2141.6,574.2c-149.5,3.9 -297.3,1.6 -439.7,-7.1l-10,-0.5l-0.7,0l-1.2,-0.1c-547.3,-30.7 -1023.8,-198.5 -1465,-367.7c-1749.6,-674.5 -2682.6,-2359.3 -2691.8,-2376.2c-246.62,-458.1 -409.66,-819.3 -528.45,-1170.8c-64.75,-189.9 -115.48,-374.8 -155.23,-565.5l-1.9,-9.4l-0.1,0c-15.97,-75.9 -136.96,-661.2 -314.65,-1786.7c-36.72,-232.5 -112.3,-458.4 -173.05,-639.9c-29.68,-88.8 -65.23,-195.1 -77.68,-254.7c68.02,6.2 208.3,48.1 386.62,142.2c58.69,30.7 129.88,24.7 182.08,-14.9c53.17,-40.2 78.61,-108.7 64.79,-174.5c-10.05,-48.4 -37.3,-154.7 -106.1,-320l-9.52,-22.9c-40.82,-97.8 -95.66,-229.1 -94.78,-280.3c27.2,-11.2 106.79,-27 258.7,-4.7c407.27,59.6 680.87,-338.7 692.37,-355.7c16.3,-23.9 98.6,-112.8 147,-162.1c509.4,-485.7 1143.3,-812.5 2118.7,-1092.1zm2361.6,-545.6c-1375.5,0 -2374.8,220.5 -2436.2,234.4l-8.8,2.2c-1032.2,295.5 -1707.6,645.8 -2258.2,1171.4l0.2,0.1c-30.3,29.8 -149.8,154.3 -189.3,212.3c-1.6,2.4 -173.27,248.7 -381.09,218.5c-407.17,-59.6 -551.51,71.2 -600.53,191.5c-61.87,151.9 4.2,315.7 90.18,521.7c-168.36,-52.9 -300.83,-55.1 -395.6,-6.4c-80.28,41.3 -131.45,116.2 -144.14,210.5c-13.68,102 30.07,232.8 96.24,430.6c56.98,170.3 127.88,382.2 160.4,588.3c181.44,1149.2 304.78,1741.8 318.45,1806.6c1.27,6.4 2.05,9.5 2.05,9.5c41.46,199.2 95.61,396.4 164.51,598.4c124.56,368.8 294.24,745.2 549.95,1220.2c40.04,73.8 995.98,1804.6 2858.38,2522.7c443.6,170.1 966,354.3 1557.4,388.2c5.9,0.7 13,1.2 21.1,1.2c149.6,8.9 304.7,11.3 461,7.2c714.1,-16.7 1545.1,-231.5 2194.9,-564.6c976,732.1 2202.5,1494.3 2687.1,1133.5c955.4,-711 181.7,-3412.6 42.8,-3867.3c303.8,-613.6 512.4,-1448.9 536.5,-1548.7c7.3,-26 80.3,-297.9 314.4,-1464.1c41,-204.7 120.6,-413.4 184.5,-581.1c74.4,-195.1 123.5,-323.9 114,-426.4c-8.7,-94.8 -56.7,-171.6 -135.2,-216.2c-92.5,-52.8 -225.1,-55.9 -395.5,-10c94.4,-202.3 167.2,-363.3 111.6,-517.7c-75,-208.5 -350.4,-244.6 -551.5,-270.9c-217.4,-28.5 -587.3,-448.6 -786,-674.3c-93.8,-106.5 -162.2,-184.2 -212.9,-225.6l-0.3,-0.2c-206.1,-185.7 -442.3,-354 -699.1,-497.5c-360.4,-193.9 -699.2,-320.3 -1038.1,-387.6c-790.7,-157.1 -1557.4,-210.4 -2233.2,-210.4"/>
    <path fill="#000072" fill-rule="nonzero" id="path184" d="m5321.163614,26146.123444c34.2,-182.9 79.3,-363.2 136.7,-536.2c29.3,-86.1 60.4,-171.1 98.3,-250.2c37.4,-78.9 79.6,-154.1 127.4,-213c52.9,-65 42.9,-160.7 -22.1,-213.5c-65.1,-52.8 -160.7,-42.9 -213.6,22.2c-9,11 -16.2,23 -21.6,35.5l-2.1,5.2c-43.4,102 -66,200.8 -83.3,298.1c-17.2,97.2 -24.8,193.1 -30.4,288.2c-9.8,190.2 -5,377.9 10.7,563.7"/>
    <path fill="#000072" fill-rule="nonzero" id="path186" d="m6456.663614,26234.123444c68.1,-164.5 142.8,-325.7 223.6,-481.6c81.1,-155 169.6,-307.9 270,-434c52.2,-65.5 41.3,-160.9 -24.1,-213.1c-65.5,-52.1 -160.9,-41.3 -213.1,24.2c-9.1,11.4 -16.3,23.8 -21.6,36.6l-0.6,1.6c-73.7,181.1 -115.6,357.7 -152.1,535c-35.3,177.2 -62.4,354.1 -82.1,531.3"/>
    <path fill="#6d76a4" fill-rule="nonzero" id="path188" d="m13195.363614,24914.223444l-44.6,13.7c-70.5,22 -138.9,49.7 -208.5,74.2c-550.8,208.8 -1066.7,515.7 -1481.2,927.1c-206.8,205.2 -387.6,435.7 -530.3,686.5c-141.8,250.7 -249.3,521.3 -298.7,801.7c-26.2,137.6 -32.5,287.5 -44.6,433.8c-8.5,73.4 -3.1,146.7 -4.5,220.1l0.2,110c0,22.4 -0.4,44.9 0.4,67.2c320.6,-892.8 1155.2,-1731.4 2414.8,-2173.5c213.3,-74.9 438.8,-138.4 676,-188.9c14.7,-42 37,-82.5 67.5,-119.6l19.2,-23.7c158.6,-193.9 98.7,-484.7 -123.8,-599.8l-441.9,-228.8"/>
    <path fill="#b2b2d4" fill-rule="nonzero" id="path190" d="m15028.063614,24645.323444c-116.6,0 -233.3,3 -349.8,9.4c-148.9,4.1 -296.3,22.3 -444.3,35.9c-146.6,21.8 -294.4,38.9 -439.1,70.8c-146,25.8 -288.9,64.7 -432.2,101.5l-167.3,51.3l441.9,228.8c222.5,115.1 282.4,405.9 123.8,599.8l-19.2,23.7c-30.5,37.1 -52.8,77.6 -67.5,119.6c413.6,-88 863,-136.5 1345.6,-136.5c830.3,0 1759.3,143.2 2775.6,474.6c1345.3,438.5 2160.9,1203 2522.9,1943.6c46.9,-134 66.7,-281.8 60.3,-430.2c-8.6,-274.9 -94.7,-551.7 -224.9,-805.6c-129.9,-255.2 -306.8,-488.3 -508.7,-697.3c-407.2,-417.3 -916.8,-735.7 -1463.1,-961.6c-136.2,-57.9 -276,-107.8 -416.5,-155.4c-142.7,-44.8 -286.7,-88.3 -430.3,-131.5c-145.3,-36.9 -289.5,-78.5 -435.6,-111.8l-219.4,-48.2l-109.8,-23.8l-110.5,-19.5c-473.1,-86.1 -953,-137.6 -1431.9,-137.6"/>
    <path fill="#000072" fill-rule="nonzero" id="path192" d="m15019.963614,24484.423444c-759.6,0 -1436.4,119.9 -2021.6,325.4c-1522,534.4 -2423.6,1647.2 -2547.6,2735.6c-46.4,406.4 -40.8,790.4 16,1150.8c24.5,-149.7 63.5,-299.4 116.8,-447.7c-0.8,-22.3 -0.4,-44.8 -0.4,-67.2l-0.2,-110c1.4,-73.4 -4,-146.7 4.5,-220.1c12.1,-146.3 18.4,-296.2 44.6,-433.8c49.4,-280.4 156.9,-551 298.7,-801.7c142.7,-250.8 323.5,-481.3 530.3,-686.5c414.5,-411.4 930.4,-718.3 1481.2,-927.1c69.6,-24.5 138,-52.2 208.5,-74.2l44.6,-13.7l167.3,-51.3c143.3,-36.8 286.2,-75.7 432.2,-101.5c144.7,-31.9 292.5,-49 439.1,-70.8c148,-13.6 295.4,-31.8 444.3,-35.9c116.5,-6.4 233.2,-9.4 349.8,-9.4c478.9,0 958.8,51.5 1431.9,137.6l110.5,19.5l109.8,23.8l219.4,48.2c146.1,33.3 290.3,74.9 435.6,111.8c143.6,43.2 287.6,86.7 430.3,131.5c140.5,47.6 280.3,97.5 416.5,155.4c546.3,225.9 1055.9,544.3 1463.1,961.6c201.9,209 378.8,442.1 508.7,697.3c130.2,253.9 216.3,530.7 224.9,805.6c6.4,148.4 -13.4,296.2 -60.3,430.2c32.9,67.3 62,134.5 87.5,201.2c469.2,-892.8 -266.4,-2645.6 -2610.4,-3410c-1016.2,-331.3 -1945.3,-474.6 -2775.6,-474.6"/>
   </g>
  </g>
 </g>
</svg>